<svg width="393" height="141" viewBox="0 0 393 141" fill="none" xmlns="http://www.w3.org/2000/svg">
<g clip-path="url(#clip0_1_30)">
<path d="M16.04 102.42C26.24 112.62 36.44 117.72 46.64 117.72C51.92 117.72 56.12 116.52 59.24 114.12C62.48 111.6 64.1 108.42 64.1 104.58C64.1 100.62 62.18 97.32 58.34 94.68C54.5 91.92 49.82 89.52 44.3 87.48C38.9 85.44 33.5 83.16 28.1 80.64C22.7 78 18.08 74.28 14.24 69.48C10.4 64.68 8.48 58.86 8.48 52.02C8.48 41.22 12.98 31.92 21.98 24.12C30.98 16.2 41.66 12.24 54.02 12.24C59.66 12.24 65.12 12.84 70.4 14.04C75.68 15.24 80.78 16.98 85.7 19.26L73.46 45.54C70.1 42.9 65.48 40.5 59.6 38.34C53.84 36.06 48.74 34.92 44.3 34.92C39.98 34.92 36.44 36 33.68 38.16C31.04 40.2 29.72 42.96 29.72 46.44C29.72 49.92 31.64 53.04 35.48 55.8C39.32 58.44 43.94 60.78 49.34 62.82C54.86 64.86 60.32 67.14 65.72 69.66C71.24 72.06 75.92 75.66 79.76 80.46C83.6 85.26 85.52 91.08 85.52 97.92C85.52 109.2 81.02 119.1 72.02 127.62C63.02 136.02 52.52 140.22 40.52 140.22C31.52 140.22 23.54 138.06 16.58 133.74C10.46 130.02 6.14 126.72 3.62 123.84L2 121.86L16.04 102.42Z" fill="#00E393"/>
<path d="M151.26 93.78C151.26 85.5 150.54 79.98 149.1 77.22C147.66 74.46 144.3 73.08 139.02 73.08C133.74 73.08 127.74 75.18 121.02 79.38V92.52L123 134.82L98.7 139.32L100.86 95.58L98.7 4.5L123.36 0L121.02 46.62V67.68C122.82 65.28 124.86 62.94 127.14 60.66C129.42 58.38 132.96 55.8 137.76 52.92C142.56 50.04 147.66 48.6 153.06 48.6C158.58 48.6 163.2 50.76 166.92 55.08C170.64 59.28 172.5 65.04 172.5 72.36L171.42 92.52L173.4 135.72L149.1 140.22L151.26 93.78Z" fill="#00BDE3"/>
<path d="M211.78 48.6L209.62 93.42L211.6 135.72L187.48 140.22L189.64 96.48L187.66 53.1L211.78 48.6ZM186.4 22.32C186.4 18.24 187.96 14.64 191.08 11.52C194.2 8.28003 197.8 6.66003 201.88 6.66003C205.96 6.66003 209.08 7.80004 211.24 10.08C213.4 12.24 214.48 15.54 214.48 19.98C214.48 24.42 212.92 28.26 209.8 31.5C206.8 34.62 203.26 36.18 199.18 36.18C195.22 36.18 192.1 34.86 189.82 32.22C187.54 29.58 186.4 26.28 186.4 22.32Z" fill="#E39700"/>
<path d="M227.48 53.28L249.26 48.6C250.34 57.84 251.06 66.6 251.42 74.88C262.34 57.96 272.6 49.5 282.2 49.5L280.22 77.58C273.26 77.58 267.74 78.24 263.66 79.56C259.7 80.76 255.62 83.22 251.42 86.94V93.42L253.4 135.72L229.28 140.22L231.44 96.48C230.96 80.4 229.64 66 227.48 53.28Z" fill="#E300BD"/>
<path d="M307.62 53.1V33.48L331.92 28.8L329.58 53.1H351.36L349.38 67.86H328.86L327.96 105.48C327.96 111.12 328.5 114.9 329.58 116.82C330.66 118.62 332.64 119.52 335.52 119.52C338.4 119.52 342.24 118.86 347.04 117.54L348.12 130.32C340.2 136.92 333.24 140.22 327.24 140.22C321.24 140.22 316.32 138.06 312.48 133.74C308.64 129.3 306.72 123.54 306.72 116.46L307.8 96.3L307.62 67.86H295.2L297.18 53.1H307.62Z" fill="#E3004C"/>
<path d="M364.36 127.08C364.36 123.24 365.74 119.88 368.5 117C371.38 114 374.8 112.5 378.76 112.5C386.56 112.5 390.46 116.46 390.46 124.38C390.46 128.94 389.02 132.72 386.14 135.72C383.38 138.72 380.08 140.22 376.24 140.22C372.52 140.22 369.58 139.02 367.42 136.62C365.38 134.1 364.36 130.92 364.36 127.08Z" fill="#E3E300"/>
</g>
<defs>
<clipPath id="clip0_1_30">
<rect width="392.46" height="140.22" fill="white"/>
</clipPath>
</defs>
</svg>
