<svg width="190" height="190" viewBox="0 0 190 190" fill="none" xmlns="http://www.w3.org/2000/svg">
<path d="M7 99.7359C7 73.7314 16.3453 50.9774 35.036 31.474C54.5394 11.158 77.6997 1 104.517 1C157.338 1 183.749 27.8172 183.749 81.4515C183.749 112.332 173.998 137.93 154.494 158.246C135.804 178.562 113.456 188.72 87.4512 188.72C62.2594 188.72 42.3498 180.594 27.7223 164.341C13.9074 147.275 7 125.74 7 99.7359Z" fill="#00E393"/>
<path d="M67.04 121.18C77.24 131.38 87.44 136.48 97.64 136.48C102.92 136.48 107.12 135.28 110.24 132.88C113.48 130.36 115.1 127.18 115.1 123.34C115.1 119.38 113.18 116.08 109.34 113.44C105.5 110.68 100.82 108.28 95.3 106.24C89.9 104.2 84.5 101.92 79.1 99.4C73.7 96.76 69.08 93.04 65.24 88.24C61.4 83.44 59.48 77.62 59.48 70.78C59.48 59.98 63.98 50.68 72.98 42.88C81.98 34.96 92.66 31 105.02 31C110.66 31 116.12 31.6 121.4 32.8C126.68 34 131.78 35.74 136.7 38.02L124.46 64.3C121.1 61.66 116.48 59.26 110.6 57.1C104.84 54.82 99.74 53.68 95.3 53.68C90.98 53.68 87.44 54.76 84.68 56.92C82.04 58.96 80.72 61.72 80.72 65.2C80.72 68.68 82.64 71.8 86.48 74.56C90.32 77.2 94.94 79.54 100.34 81.58C105.86 83.62 111.32 85.9 116.72 88.42C122.24 90.82 126.92 94.42 130.76 99.22C134.6 104.02 136.52 109.84 136.52 116.68C136.52 127.96 132.02 137.86 123.02 146.38C114.02 154.78 103.52 158.98 91.52 158.98C82.52 158.98 74.54 156.82 67.58 152.5C61.46 148.78 57.14 145.48 54.62 142.6L53 140.62L67.04 121.18Z" fill="white"/>
</svg>
